<svg width="246" height="162" viewBox="0 0 246 162" fill="none" xmlns="http://www.w3.org/2000/svg">
<path d="M63.698 161.23C50.318 161.23 38.8707 158.034 29.356 151.641C19.99 145.248 12.7797 136.105 7.725 124.212C2.819 112.17 0.366001 97.7493 0.366001 80.95C0.366001 64.1507 2.819 49.8043 7.725 37.911C12.7797 25.869 19.99 16.6517 29.356 10.259C38.8707 3.86632 50.318 0.669991 63.698 0.669991C77.078 0.669991 88.5253 3.86632 98.04 10.259C107.555 16.6517 114.765 25.869 119.671 37.911C124.726 49.8043 127.253 64.1507 127.253 80.95C127.253 97.7493 124.726 112.17 119.671 124.212C114.765 136.105 107.555 145.248 98.04 151.641C88.5253 158.034 77.078 161.23 63.698 161.23ZM63.698 132.463C73.6587 132.463 81.3893 128.003 86.89 119.083C92.3907 110.163 95.141 97.452 95.141 80.95C95.141 64.1507 92.3907 51.2167 86.89 42.148C81.3893 33.0793 73.6587 28.545 63.698 28.545C53.5887 28.545 45.7837 33.0793 40.283 42.148C34.931 51.2167 32.255 64.1507 32.255 80.95C32.255 97.452 34.931 110.163 40.283 119.083C45.7837 128.003 53.5887 132.463 63.698 132.463ZM184.189 148.073V21.409L192.44 36.35L159.882 52.183L153.415 22.524L196.9 0.669991H217.193V148.073H184.189ZM156.76 159V128.895H245.291V159H156.76Z" fill="url(#paint0_linear_31_126)" fill-opacity="0.14"/>
<path d="M29.356 151.641L28.7922 152.467L28.7983 152.471L29.356 151.641ZM7.725 124.212L6.79891 124.589L6.80174 124.596L6.80467 124.603L7.725 124.212ZM7.725 37.911L6.80292 37.5239L6.80056 37.5297L7.725 37.911ZM29.356 10.259L28.7983 9.42892L28.7923 9.43304L29.356 10.259ZM98.04 10.259L98.5977 9.42894L98.04 10.259ZM119.671 37.911L118.745 38.2883L118.748 38.2952L118.751 38.3021L119.671 37.911ZM119.671 124.212L118.749 123.825L118.747 123.831L119.671 124.212ZM98.04 151.641L98.5977 152.471L98.04 151.641ZM86.89 42.148L87.745 41.6294L86.89 42.148ZM40.283 42.148L39.4279 41.6293L39.4218 41.6397L40.283 42.148ZM40.283 119.083L39.4254 119.598L39.4318 119.608L40.283 119.083ZM63.698 160.23C50.4826 160.23 39.2373 157.075 29.9137 150.811L28.7983 152.471C38.504 158.992 50.1534 162.23 63.698 162.23V160.23ZM29.9197 150.815C20.733 144.545 13.6359 135.563 8.64533 123.821L6.80467 124.603C11.9234 136.647 19.247 145.952 28.7923 152.467L29.9197 150.815ZM8.65109 123.835C3.80587 111.942 1.366 97.656 1.366 80.95H-0.633999C-0.633999 97.8426 1.83213 112.398 6.79891 124.589L8.65109 123.835ZM1.366 80.95C1.366 64.2434 3.80604 50.0339 8.64944 38.2923L6.80056 37.5297C1.83196 49.5748 -0.633999 64.0579 -0.633999 80.95H1.366ZM8.64706 38.298C13.6387 26.4062 20.7361 17.3532 29.9197 11.0849L28.7923 9.43304C19.2439 15.9502 11.9206 25.3318 6.80294 37.524L8.64706 38.298ZM29.9137 11.089C39.2373 4.82473 50.4826 1.66999 63.698 1.66999V-0.330009C50.1534 -0.330009 38.504 2.90792 28.7983 9.42894L29.9137 11.089ZM63.698 1.66999C76.9134 1.66999 88.1587 4.82473 97.4823 11.089L98.5977 9.42894C88.892 2.90792 77.2426 -0.330009 63.698 -0.330009V1.66999ZM97.4823 11.089C106.81 17.3563 113.904 26.4049 118.745 38.2883L120.597 37.5337C115.626 25.3331 108.299 15.947 98.5977 9.42894L97.4823 11.089ZM118.751 38.3021C123.74 50.0407 126.253 64.2466 126.253 80.95H128.253C128.253 64.0547 125.712 49.568 120.591 37.5199L118.751 38.3021ZM126.253 80.95C126.253 97.6529 123.74 111.935 118.749 123.825L120.593 124.599C125.712 112.405 128.253 97.8458 128.253 80.95H126.253ZM118.747 123.831C113.906 135.565 106.814 144.542 97.4823 150.811L98.5977 152.471C108.296 145.955 115.624 136.646 120.595 124.593L118.747 123.831ZM97.4823 150.811C88.1587 157.075 76.9134 160.23 63.698 160.23V162.23C77.2426 162.23 88.892 158.992 98.5977 152.471L97.4823 150.811ZM63.698 133.463C74.027 133.463 82.0699 128.805 87.7412 119.608L86.0388 118.558C80.7088 127.201 73.2904 131.463 63.698 131.463V133.463ZM87.7412 119.608C93.38 110.464 96.141 97.5401 96.141 80.95H94.141C94.141 97.3639 91.4014 109.862 86.0388 118.558L87.7412 119.608ZM96.141 80.95C96.141 64.0649 93.3807 50.9206 87.745 41.6294L86.035 42.6666C91.4007 51.5127 94.141 64.2364 94.141 80.95H96.141ZM87.745 41.6294C82.0773 32.2853 74.0348 27.545 63.698 27.545V29.545C73.2825 29.545 80.7014 33.8733 86.035 42.6666L87.745 41.6294ZM63.698 27.545C53.2187 27.545 45.0991 32.2797 39.428 41.6294L41.138 42.6666C46.4683 33.8789 53.9586 29.545 63.698 29.545V27.545ZM39.4218 41.6397C33.94 50.9283 31.255 64.0682 31.255 80.95H33.255C33.255 64.2331 35.922 51.5051 41.1442 42.6562L39.4218 41.6397ZM31.255 80.95C31.255 97.5367 33.9407 110.456 39.4255 119.597L41.1405 118.568C35.9213 109.87 33.255 97.3673 33.255 80.95H31.255ZM39.4318 119.608C45.1065 128.81 53.2265 133.463 63.698 133.463V131.463C53.9508 131.463 46.4609 127.196 41.1342 118.558L39.4318 119.608ZM184.189 148.073H183.189V149.073H184.189V148.073ZM184.189 21.409L185.065 20.9256L183.189 21.409H184.189ZM192.44 36.35L192.878 37.2493L193.825 36.7886L193.316 35.8666L192.44 36.35ZM159.882 52.183L158.905 52.396L159.176 53.6384L160.32 53.0823L159.882 52.183ZM153.415 22.524L152.966 21.6305L152.273 21.9789L152.438 22.737L153.415 22.524ZM196.9 0.669991V-0.330009H196.663L196.451 -0.223518L196.9 0.669991ZM217.193 0.669991H218.193V-0.330009H217.193V0.669991ZM217.193 148.073V149.073H218.193V148.073H217.193ZM156.76 159H155.76V160H156.76V159ZM156.76 128.895V127.895H155.76V128.895H156.76ZM245.291 128.895H246.291V127.895H245.291V128.895ZM245.291 159V160H246.291V159H245.291ZM185.189 148.073V21.409H183.189V148.073H185.189ZM183.314 21.8924L191.565 36.8334L193.316 35.8666L185.065 20.9256L183.314 21.8924ZM192.003 35.4507L159.445 51.2837L160.32 53.0823L192.878 37.2493L192.003 35.4507ZM160.859 51.97L154.392 22.311L152.438 22.737L158.905 52.396L160.859 51.97ZM153.864 23.4175L197.349 1.5635L196.451 -0.223518L152.966 21.6305L153.864 23.4175ZM196.9 1.66999H217.193V-0.330009H196.9V1.66999ZM216.193 0.669991V148.073H218.193V0.669991H216.193ZM217.193 147.073H184.189V149.073H217.193V147.073ZM157.76 159V128.895H155.76V159H157.76ZM156.76 129.895H245.291V127.895H156.76V129.895ZM244.291 128.895V159H246.291V128.895H244.291ZM245.291 158H156.76V160H245.291V158Z" fill="url(#paint1_linear_31_126)"/>
<defs>
<linearGradient id="paint0_linear_31_126" x1="129.5" y1="-23" x2="129.5" y2="174" gradientUnits="userSpaceOnUse">
<stop stop-color="#5BE9B9"/>
<stop offset="1" stop-color="#164B39" stop-opacity="0.16"/>
</linearGradient>
<linearGradient id="paint1_linear_31_126" x1="129.5" y1="-23" x2="129.5" y2="174" gradientUnits="userSpaceOnUse">
<stop stop-color="#5BE9B9"/>
<stop offset="1" stop-color="#0A1713" stop-opacity="0"/>
</linearGradient>
</defs>
</svg>
