<svg width="67" height="58" viewBox="0 0 67 58" fill="none" xmlns="http://www.w3.org/2000/svg">
<g clip-path="url(#clip0_12_50)">
<path d="M57.9312 7.54114H63.0874C64.2218 7.54114 65.1499 8.33825 65.1499 9.32239C65.1499 10.3065 64.2218 11.1036 63.0874 11.1036H57.9312V15.5568C57.9312 16.5365 57.0031 17.338 55.8687 17.338C54.7343 17.338 53.8062 16.5365 53.8062 15.5568V11.1036H48.6499C47.5156 11.1036 46.5874 10.3065 46.5874 9.32239C46.5874 8.33825 47.5156 7.54114 48.6499 7.54114H53.8062V3.08801C53.8062 2.10387 54.7343 1.30676 55.8687 1.30676C57.0031 1.30676 57.9312 2.10387 57.9312 3.08801V7.54114ZM35.9913 15.1894L64.0156 26.0327C65.3304 26.5448 66.1812 27.6693 66.1812 28.9161C66.1812 30.163 65.3304 31.2874 64.0156 31.7995L35.9913 42.6429C34.9988 42.988 34.148 43.1661 33.1812 43.1661C32.2144 43.1661 31.2476 42.988 30.371 42.6429L2.34165 31.7995C1.02694 31.2874 0.181222 30.163 0.181222 28.9161C0.181222 27.6693 1.02694 26.5448 2.34165 26.0327L30.371 15.1894C31.2476 14.8443 32.2144 14.6661 33.1812 14.6661C34.148 14.6661 34.9988 14.8443 35.9913 15.1894ZM4.98552 28.9161L32.0468 39.3921C32.2917 39.5368 32.6784 39.6036 33.1812 39.6036C33.5679 39.6036 33.9546 39.5368 34.3156 39.3921L61.373 28.9161L34.3156 18.4402C33.9546 18.2954 33.5679 18.2286 33.1812 18.2286C32.6784 18.2286 32.2917 18.2954 32.0468 18.4402L4.98552 28.9161ZM4.98552 43.1661L32.0468 53.6421C32.2917 53.7868 32.6784 53.8536 33.1812 53.8536C33.5679 53.8536 33.9546 53.7868 34.3156 53.6421L61.373 43.1661L57.0933 41.5074C56.0492 41.1066 55.5851 40.049 56.0492 39.1472C56.5132 38.2566 57.7378 37.8558 58.7691 38.2566L64.0156 40.2827C65.3304 40.7948 66.1812 41.9193 66.1812 43.1661C66.1812 44.413 65.3304 45.5374 64.0156 46.0495L35.9913 56.8929C34.9988 57.238 34.148 57.4161 33.1812 57.4161C32.2144 57.4161 31.2476 57.238 30.371 56.8929L2.34165 46.0495C1.02694 45.5374 0.181183 44.413 0.181183 43.1661C0.181183 41.9193 1.02694 40.7948 2.34165 40.2827L7.58814 38.2566C8.62712 37.8558 9.84786 38.2566 10.3132 39.1472C10.7786 40.049 10.3145 41.1066 9.27423 41.5074L4.98552 43.1661Z" fill="#141C3A"/>
</g>
<defs>
<clipPath id="clip0_12_50">
<rect width="66" height="57" fill="white" transform="translate(0.181183 0.416138)"/>
</clipPath>
</defs>
</svg>
