<svg width="256" height="163" viewBox="0 0 256 163" fill="none" xmlns="http://www.w3.org/2000/svg">
<path d="M63.698 162.23C50.318 162.23 38.8707 159.034 29.356 152.641C19.99 146.248 12.7797 137.105 7.725 125.212C2.819 113.17 0.366001 98.7493 0.366001 81.95C0.366001 65.1507 2.819 50.8043 7.725 38.911C12.7797 26.869 19.99 17.6517 29.356 11.259C38.8707 4.86632 50.318 1.66999 63.698 1.66999C77.078 1.66999 88.5253 4.86632 98.04 11.259C107.555 17.6517 114.765 26.869 119.671 38.911C124.726 50.8043 127.253 65.1507 127.253 81.95C127.253 98.7493 124.726 113.17 119.671 125.212C114.765 137.105 107.555 146.248 98.04 152.641C88.5253 159.034 77.078 162.23 63.698 162.23ZM63.698 133.463C73.6587 133.463 81.3893 129.003 86.89 120.083C92.3907 111.163 95.141 98.452 95.141 81.95C95.141 65.1507 92.3907 52.2167 86.89 43.148C81.3893 34.0793 73.6587 29.545 63.698 29.545C53.5887 29.545 45.7837 34.0793 40.283 43.148C34.931 52.2167 32.255 65.1507 32.255 81.95C32.255 98.452 34.931 111.163 40.283 120.083C45.7837 129.003 53.5887 133.463 63.698 133.463ZM152.3 160L144.941 141.714L191.102 90.647C193.63 87.971 196.306 84.849 199.13 81.281C202.104 77.713 204.928 74.0707 207.604 70.354C210.429 66.4887 212.659 62.772 214.294 59.204C215.93 55.4873 216.747 52.1423 216.747 49.169C216.747 45.7497 216.004 42.7763 214.517 40.249C213.031 37.573 210.875 35.4917 208.05 34.005C205.226 32.5183 201.732 31.775 197.569 31.775C193.704 31.775 190.062 32.8157 186.642 34.897C183.223 36.8297 180.027 39.7287 177.053 43.594C174.08 47.4593 171.478 52.1423 169.248 57.643L144.272 43.594C147.246 34.9713 151.483 27.4637 156.983 21.071C162.484 14.6783 169.025 9.69799 176.607 6.12999C184.189 2.56199 192.292 0.77799 200.914 0.77799C209.983 0.926654 218.16 2.85932 225.444 6.57599C232.729 10.2927 238.453 15.496 242.615 22.186C246.778 28.876 248.859 36.6067 248.859 45.378C248.859 48.6487 248.488 51.9937 247.744 55.413C247.15 58.8323 246.035 62.4003 244.399 66.117C242.913 69.8337 240.906 73.7733 238.378 77.936C236 81.95 233.026 86.2613 229.458 90.87C226.039 95.33 222.099 100.013 217.639 104.919L182.182 143.498L177.722 129.895H255.326V160H152.3Z" fill="url(#paint0_linear_32_130)" fill-opacity="0.14"/>
<path d="M29.356 152.641L28.7922 153.467L28.7983 153.471L29.356 152.641ZM7.725 125.212L6.79891 125.589L6.80174 125.596L6.80467 125.603L7.725 125.212ZM7.725 38.911L6.80292 38.5239L6.80056 38.5297L7.725 38.911ZM29.356 11.259L28.7983 10.4289L28.7923 10.433L29.356 11.259ZM98.04 11.259L98.5977 10.4289L98.04 11.259ZM119.671 38.911L118.745 39.2883L118.748 39.2952L118.751 39.3021L119.671 38.911ZM119.671 125.212L118.749 124.825L118.747 124.831L119.671 125.212ZM98.04 152.641L98.5977 153.471L98.04 152.641ZM86.89 43.148L87.745 42.6294L86.89 43.148ZM40.283 43.148L39.4279 42.6293L39.4218 42.6397L40.283 43.148ZM40.283 120.083L39.4254 120.598L39.4318 120.608L40.283 120.083ZM63.698 161.23C50.4826 161.23 39.2373 158.075 29.9137 151.811L28.7983 153.471C38.504 159.992 50.1534 163.23 63.698 163.23V161.23ZM29.9197 151.815C20.733 145.545 13.6359 136.563 8.64533 124.821L6.80467 125.603C11.9234 137.647 19.247 146.952 28.7923 153.467L29.9197 151.815ZM8.65109 124.835C3.80587 112.942 1.366 98.656 1.366 81.95H-0.633999C-0.633999 98.8426 1.83213 113.398 6.79891 125.589L8.65109 124.835ZM1.366 81.95C1.366 65.2434 3.80604 51.0339 8.64944 39.2923L6.80056 38.5297C1.83196 50.5748 -0.633999 65.0579 -0.633999 81.95H1.366ZM8.64706 39.298C13.6387 27.4062 20.7361 18.3532 29.9197 12.0849L28.7923 10.433C19.2439 16.9502 11.9206 26.3318 6.80294 38.524L8.64706 39.298ZM29.9137 12.089C39.2373 5.82473 50.4826 2.66999 63.698 2.66999V0.669991C50.1534 0.669991 38.504 3.90792 28.7983 10.4289L29.9137 12.089ZM63.698 2.66999C76.9134 2.66999 88.1587 5.82473 97.4823 12.089L98.5977 10.4289C88.892 3.90792 77.2426 0.669991 63.698 0.669991V2.66999ZM97.4823 12.089C106.81 18.3563 113.904 27.4049 118.745 39.2883L120.597 38.5337C115.626 26.3331 108.299 16.947 98.5977 10.4289L97.4823 12.089ZM118.751 39.3021C123.74 51.0407 126.253 65.2466 126.253 81.95H128.253C128.253 65.0547 125.712 50.568 120.591 38.5199L118.751 39.3021ZM126.253 81.95C126.253 98.6529 123.74 112.935 118.749 124.825L120.593 125.599C125.712 113.405 128.253 98.8458 128.253 81.95H126.253ZM118.747 124.831C113.906 136.565 106.814 145.542 97.4823 151.811L98.5977 153.471C108.296 146.955 115.624 137.646 120.595 125.593L118.747 124.831ZM97.4823 151.811C88.1587 158.075 76.9134 161.23 63.698 161.23V163.23C77.2426 163.23 88.892 159.992 98.5977 153.471L97.4823 151.811ZM63.698 134.463C74.027 134.463 82.0699 129.805 87.7412 120.608L86.0388 119.558C80.7088 128.201 73.2904 132.463 63.698 132.463V134.463ZM87.7412 120.608C93.38 111.464 96.141 98.5401 96.141 81.95H94.141C94.141 98.3639 91.4014 110.862 86.0388 119.558L87.7412 120.608ZM96.141 81.95C96.141 65.0649 93.3807 51.9206 87.745 42.6294L86.035 43.6666C91.4007 52.5127 94.141 65.2364 94.141 81.95H96.141ZM87.745 42.6294C82.0773 33.2853 74.0348 28.545 63.698 28.545V30.545C73.2825 30.545 80.7014 34.8733 86.035 43.6666L87.745 42.6294ZM63.698 28.545C53.2187 28.545 45.0991 33.2797 39.428 42.6294L41.138 43.6666C46.4683 34.8789 53.9586 30.545 63.698 30.545V28.545ZM39.4218 42.6397C33.94 51.9283 31.255 65.0682 31.255 81.95H33.255C33.255 65.2331 35.922 52.5051 41.1442 43.6562L39.4218 42.6397ZM31.255 81.95C31.255 98.5367 33.9407 111.456 39.4255 120.597L41.1405 119.568C35.9213 110.87 33.255 98.3673 33.255 81.95H31.255ZM39.4318 120.608C45.1065 129.81 53.2265 134.463 63.698 134.463V132.463C53.9508 132.463 46.4609 128.196 41.1342 119.558L39.4318 120.608ZM152.3 160L151.373 160.373L151.625 161H152.3V160ZM144.941 141.714L144.2 141.043L143.78 141.507L144.014 142.087L144.941 141.714ZM191.102 90.647L190.375 89.9604L190.368 89.9683L190.361 89.9764L191.102 90.647ZM199.13 81.281L198.362 80.6408L198.354 80.6505L198.346 80.6603L199.13 81.281ZM207.604 70.354L206.797 69.764L206.793 69.7697L207.604 70.354ZM214.294 59.204L215.203 59.6207L215.207 59.6137L215.21 59.6067L214.294 59.204ZM214.517 40.249L213.643 40.7346L213.649 40.7454L213.656 40.756L214.517 40.249ZM208.05 34.005L207.585 34.8899L208.05 34.005ZM186.642 34.897L187.134 35.7676L187.149 35.7596L187.162 35.7512L186.642 34.897ZM177.053 43.594L177.846 44.2037L177.053 43.594ZM169.248 57.643L168.758 58.5146L169.748 59.0715L170.175 58.0187L169.248 57.643ZM144.272 43.594L143.327 43.268L143.055 44.0566L143.782 44.4656L144.272 43.594ZM156.983 21.071L157.741 21.7232L156.983 21.071ZM176.607 6.12999L176.182 5.22517L176.607 6.12999ZM200.914 0.77799L200.931 -0.221876L200.923 -0.22201H200.914V0.77799ZM225.444 6.57599L224.99 7.46676L225.444 6.57599ZM247.744 55.413L246.767 55.2006L246.763 55.221L246.759 55.2417L247.744 55.413ZM244.399 66.117L243.484 65.7143L243.477 65.7298L243.471 65.7456L244.399 66.117ZM238.378 77.936L237.524 77.417L237.518 77.4262L238.378 77.936ZM229.458 90.87L228.668 90.2578L228.665 90.2616L229.458 90.87ZM217.639 104.919L218.376 105.596L218.379 105.592L217.639 104.919ZM182.182 143.498L181.232 143.81L181.764 145.431L182.919 144.175L182.182 143.498ZM177.722 129.895V128.895H176.342L176.772 130.207L177.722 129.895ZM255.326 129.895H256.326V128.895H255.326V129.895ZM255.326 160V161H256.326V160H255.326ZM153.228 159.627L145.869 141.341L144.014 142.087L151.373 160.373L153.228 159.627ZM145.683 142.385L191.844 91.3176L190.361 89.9764L144.2 141.043L145.683 142.385ZM191.829 91.3336C194.381 88.6322 197.076 85.4874 199.914 81.9017L198.346 80.6603C195.536 84.2106 192.879 87.3097 190.375 89.9604L191.829 91.3336ZM199.899 81.9212C202.887 78.3353 205.726 74.6744 208.416 70.9383L206.793 69.7697C204.131 73.467 201.321 77.0907 198.362 80.6408L199.899 81.9212ZM208.412 70.944C211.268 67.0358 213.535 63.2613 215.203 59.6207L213.385 58.7873C211.783 62.2827 209.59 65.9415 206.797 69.764L208.412 70.944ZM215.21 59.6067C216.882 55.8068 217.747 52.3218 217.747 49.169H215.747C215.747 51.9628 214.978 55.1679 213.379 58.8013L215.21 59.6067ZM217.747 49.169C217.747 45.6013 216.971 42.4469 215.379 39.742L213.656 40.756C215.038 43.1058 215.747 45.898 215.747 49.169H217.747ZM215.392 39.7634C213.806 36.9099 211.505 34.6932 208.516 33.1201L207.585 34.8899C210.245 36.2901 212.255 38.2361 213.643 40.7346L215.392 39.7634ZM208.516 33.1201C205.511 31.5383 201.847 30.775 197.569 30.775V32.775C201.618 32.775 204.941 33.4983 207.585 34.8899L208.516 33.1201ZM197.569 30.775C193.514 30.775 189.693 31.8697 186.122 34.0428L187.162 35.7512C190.431 33.7617 193.894 32.775 197.569 32.775V30.775ZM186.15 34.0264C182.59 36.0389 179.297 39.0376 176.261 42.9843L177.846 44.2037C180.757 40.4197 183.856 37.6204 187.134 35.7676L186.15 34.0264ZM176.261 42.9843C173.222 46.9347 170.579 51.7004 168.322 57.2673L170.175 58.0187C172.378 52.5843 174.938 47.9839 177.846 44.2037L176.261 42.9843ZM169.739 56.7714L144.763 42.7224L143.782 44.4656L168.758 58.5146L169.739 56.7714ZM145.218 43.92C148.153 35.4071 152.33 28.0124 157.741 21.7232L156.225 20.4188C150.636 26.9149 146.338 34.5355 143.327 43.268L145.218 43.92ZM157.741 21.7232C163.151 15.4365 169.579 10.5425 177.033 7.03481L176.182 5.22517C168.472 8.85346 161.817 13.9202 156.225 20.4188L157.741 21.7232ZM177.033 7.03481C184.478 3.53133 192.435 1.77799 200.914 1.77799V-0.22201C192.149 -0.22201 183.901 1.59264 176.182 5.22517L177.033 7.03481ZM200.898 1.77785C209.831 1.9243 217.855 3.82663 224.99 7.46676L225.899 5.68523C218.464 1.89202 210.135 -0.0709877 200.931 -0.221876L200.898 1.77785ZM224.99 7.46676C232.119 11.104 237.704 16.1848 241.766 22.7143L243.464 21.6577C239.202 14.8072 233.339 9.48129 225.899 5.68523L224.99 7.46676ZM241.766 22.7143C245.819 29.2282 247.859 36.7716 247.859 45.378H249.859C249.859 36.4417 247.737 28.5238 243.464 21.6577L241.766 22.7143ZM247.859 45.378C247.859 48.5725 247.496 51.8462 246.767 55.2006L248.722 55.6254C249.479 52.1411 249.859 48.7249 249.859 45.378H247.859ZM246.759 55.2417C246.181 58.5692 245.092 62.0594 243.484 65.7143L245.315 66.5197C246.977 62.7412 248.119 59.0955 248.73 55.5843L246.759 55.2417ZM243.471 65.7456C242.009 69.4016 240.028 73.2917 237.524 77.417L239.233 78.455C241.783 74.2549 243.817 70.2657 245.328 66.4884L243.471 65.7456ZM237.518 77.4262C235.165 81.3972 232.216 85.6742 228.668 90.2578L230.249 91.4822C233.837 86.8485 236.835 82.5028 239.239 78.4458L237.518 77.4262ZM228.665 90.2616C225.265 94.6959 221.344 99.3574 216.899 104.246L218.379 105.592C222.855 100.669 226.813 95.9641 230.252 91.4784L228.665 90.2616ZM216.903 104.242L181.446 142.821L182.919 144.175L218.376 105.596L216.903 104.242ZM183.133 143.186L178.673 129.583L176.772 130.207L181.232 143.81L183.133 143.186ZM177.722 130.895H255.326V128.895H177.722V130.895ZM254.326 129.895V160H256.326V129.895H254.326ZM255.326 159H152.3V161H255.326V159Z" fill="url(#paint1_linear_32_130)"/>
<defs>
<linearGradient id="paint0_linear_32_130" x1="129.5" y1="-22" x2="129.5" y2="175" gradientUnits="userSpaceOnUse">
<stop stop-color="#5BE9B9"/>
<stop offset="1" stop-color="#164B39" stop-opacity="0.16"/>
</linearGradient>
<linearGradient id="paint1_linear_32_130" x1="129.5" y1="-22" x2="129.5" y2="175" gradientUnits="userSpaceOnUse">
<stop stop-color="#5BE9B9"/>
<stop offset="1" stop-color="#0A1713" stop-opacity="0"/>
</linearGradient>
</defs>
</svg>
