<svg width="256" height="162" viewBox="0 0 256 162" fill="none" xmlns="http://www.w3.org/2000/svg">
<path d="M63.698 161.23C50.318 161.23 38.8707 158.034 29.356 151.641C19.99 145.248 12.7797 136.105 7.725 124.212C2.819 112.17 0.366001 97.7493 0.366001 80.95C0.366001 64.1507 2.819 49.8043 7.725 37.911C12.7797 25.869 19.99 16.6517 29.356 10.259C38.8707 3.86632 50.318 0.669991 63.698 0.669991C77.078 0.669991 88.5253 3.86632 98.04 10.259C107.555 16.6517 114.765 25.869 119.671 37.911C124.726 49.8043 127.253 64.1507 127.253 80.95C127.253 97.7493 124.726 112.17 119.671 124.212C114.765 136.105 107.555 145.248 98.04 151.641C88.5253 158.034 77.078 161.23 63.698 161.23ZM63.698 132.463C73.6587 132.463 81.3893 128.003 86.89 119.083C92.3907 110.163 95.141 97.452 95.141 80.95C95.141 64.1507 92.3907 51.2167 86.89 42.148C81.3893 33.0793 73.6587 28.545 63.698 28.545C53.5887 28.545 45.7837 33.0793 40.283 42.148C34.931 51.2167 32.255 64.1507 32.255 80.95C32.255 97.452 34.931 110.163 40.283 119.083C45.7837 128.003 53.5887 132.463 63.698 132.463ZM198.015 161.23C185.973 161.23 175.418 158.628 166.349 153.425C157.429 148.222 149.178 139.302 141.596 126.665L166.126 111.055C169.546 116.258 172.965 120.495 176.384 123.766C179.952 127.037 183.669 129.415 187.534 130.902C191.4 132.389 195.414 133.132 199.576 133.132C204.036 133.132 208.199 132.091 212.064 130.01C215.93 127.929 218.977 125.03 221.207 121.313C223.586 117.448 224.775 113.062 224.775 108.156C224.775 103.101 223.809 98.8643 221.876 95.445C219.944 92.0257 217.119 89.424 213.402 87.64C209.686 85.856 205.3 84.964 200.245 84.964C198.015 84.964 195.562 85.187 192.886 85.633C190.21 86.079 187.46 86.8223 184.635 87.863C181.811 88.755 178.763 89.87 175.492 91.208L167.687 70.692L208.942 25.646L217.416 31.667L151.854 30.775V2.00799H245.737L251.758 14.273L200.245 70.023L192.44 60.88C193.63 60.2853 195.562 59.765 198.238 59.319C201.063 58.7243 203.665 58.427 206.043 58.427C212.882 58.427 219.275 59.6907 225.221 62.218C231.168 64.7453 236.446 68.239 241.054 72.699C245.663 77.159 249.231 82.3623 251.758 88.309C254.434 94.2557 255.772 100.648 255.772 107.487C255.772 117.745 253.171 126.962 247.967 135.139C242.913 143.167 236 149.56 227.228 154.317C218.606 158.926 208.868 161.23 198.015 161.23Z" fill="url(#paint0_linear_32_129)" fill-opacity="0.14"/>
<path d="M29.356 151.641L28.7922 152.467L28.7983 152.471L29.356 151.641ZM7.725 124.212L6.79891 124.589L6.80174 124.596L6.80467 124.603L7.725 124.212ZM7.725 37.911L6.80292 37.5239L6.80056 37.5297L7.725 37.911ZM29.356 10.259L28.7983 9.42892L28.7923 9.43304L29.356 10.259ZM98.04 10.259L98.5977 9.42894L98.04 10.259ZM119.671 37.911L118.745 38.2883L118.748 38.2952L118.751 38.3021L119.671 37.911ZM119.671 124.212L118.749 123.825L118.747 123.831L119.671 124.212ZM98.04 151.641L98.5977 152.471L98.04 151.641ZM86.89 42.148L87.745 41.6294L86.89 42.148ZM40.283 42.148L39.4279 41.6293L39.4218 41.6397L40.283 42.148ZM40.283 119.083L39.4254 119.598L39.4318 119.608L40.283 119.083ZM63.698 160.23C50.4826 160.23 39.2373 157.075 29.9137 150.811L28.7983 152.471C38.504 158.992 50.1534 162.23 63.698 162.23V160.23ZM29.9197 150.815C20.733 144.545 13.6359 135.563 8.64533 123.821L6.80467 124.603C11.9234 136.647 19.247 145.952 28.7923 152.467L29.9197 150.815ZM8.65109 123.835C3.80587 111.942 1.366 97.656 1.366 80.95H-0.633999C-0.633999 97.8426 1.83213 112.398 6.79891 124.589L8.65109 123.835ZM1.366 80.95C1.366 64.2434 3.80604 50.0339 8.64944 38.2923L6.80056 37.5297C1.83196 49.5748 -0.633999 64.0579 -0.633999 80.95H1.366ZM8.64706 38.298C13.6387 26.4062 20.7361 17.3532 29.9197 11.0849L28.7923 9.43304C19.2439 15.9502 11.9206 25.3318 6.80294 37.524L8.64706 38.298ZM29.9137 11.089C39.2373 4.82473 50.4826 1.66999 63.698 1.66999V-0.330009C50.1534 -0.330009 38.504 2.90792 28.7983 9.42894L29.9137 11.089ZM63.698 1.66999C76.9134 1.66999 88.1587 4.82473 97.4823 11.089L98.5977 9.42894C88.892 2.90792 77.2426 -0.330009 63.698 -0.330009V1.66999ZM97.4823 11.089C106.81 17.3563 113.904 26.4049 118.745 38.2883L120.597 37.5337C115.626 25.3331 108.299 15.947 98.5977 9.42894L97.4823 11.089ZM118.751 38.3021C123.74 50.0407 126.253 64.2466 126.253 80.95H128.253C128.253 64.0547 125.712 49.568 120.591 37.5199L118.751 38.3021ZM126.253 80.95C126.253 97.6529 123.74 111.935 118.749 123.825L120.593 124.599C125.712 112.405 128.253 97.8458 128.253 80.95H126.253ZM118.747 123.831C113.906 135.565 106.814 144.542 97.4823 150.811L98.5977 152.471C108.296 145.955 115.624 136.646 120.595 124.593L118.747 123.831ZM97.4823 150.811C88.1587 157.075 76.9134 160.23 63.698 160.23V162.23C77.2426 162.23 88.892 158.992 98.5977 152.471L97.4823 150.811ZM63.698 133.463C74.027 133.463 82.0699 128.805 87.7412 119.608L86.0388 118.558C80.7088 127.201 73.2904 131.463 63.698 131.463V133.463ZM87.7412 119.608C93.38 110.464 96.141 97.5401 96.141 80.95H94.141C94.141 97.3639 91.4014 109.862 86.0388 118.558L87.7412 119.608ZM96.141 80.95C96.141 64.0649 93.3807 50.9206 87.745 41.6294L86.035 42.6666C91.4007 51.5127 94.141 64.2364 94.141 80.95H96.141ZM87.745 41.6294C82.0773 32.2853 74.0348 27.545 63.698 27.545V29.545C73.2825 29.545 80.7014 33.8733 86.035 42.6666L87.745 41.6294ZM63.698 27.545C53.2187 27.545 45.0991 32.2797 39.428 41.6294L41.138 42.6666C46.4683 33.8789 53.9586 29.545 63.698 29.545V27.545ZM39.4218 41.6397C33.94 50.9283 31.255 64.0682 31.255 80.95H33.255C33.255 64.2331 35.922 51.5051 41.1442 42.6562L39.4218 41.6397ZM31.255 80.95C31.255 97.5367 33.9407 110.456 39.4255 119.597L41.1405 118.568C35.9213 109.87 33.255 97.3673 33.255 80.95H31.255ZM39.4318 119.608C45.1065 128.81 53.2265 133.463 63.698 133.463V131.463C53.9508 131.463 46.4609 127.196 41.1342 118.558L39.4318 119.608ZM166.349 153.425L165.846 154.289L165.852 154.292L166.349 153.425ZM141.596 126.665L141.06 125.821L140.238 126.344L140.739 127.179L141.596 126.665ZM166.126 111.055L166.962 110.506L166.421 109.682L165.59 110.211L166.126 111.055ZM176.384 123.766L175.693 124.489L175.701 124.496L175.709 124.503L176.384 123.766ZM187.534 130.902L187.175 131.835L187.534 130.902ZM212.064 130.01L212.539 130.89H212.539L212.064 130.01ZM221.207 121.313L220.356 120.789L220.35 120.799L221.207 121.313ZM221.876 95.445L222.747 94.9529L221.876 95.445ZM192.886 85.633L192.722 84.6466L192.886 85.633ZM184.635 87.863L184.937 88.8166L184.959 88.8095L184.981 88.8013L184.635 87.863ZM175.492 91.208L174.558 91.5636L174.922 92.5217L175.871 92.1335L175.492 91.208ZM167.687 70.692L166.95 70.0166L166.534 70.4713L166.753 71.0476L167.687 70.692ZM208.942 25.646L209.522 24.8308L208.802 24.3192L208.205 24.9706L208.942 25.646ZM217.416 31.667L217.403 32.6669L220.612 32.7106L217.996 30.8518L217.416 31.667ZM151.854 30.775H150.854V31.7615L151.841 31.7749L151.854 30.775ZM151.854 2.00799V1.00799H150.854V2.00799H151.854ZM245.737 2.00799L246.635 1.56731L246.361 1.00799H245.737V2.00799ZM251.758 14.273L252.493 14.9516L252.958 14.4479L252.656 13.8323L251.758 14.273ZM200.245 70.023L199.485 70.6723L200.216 71.5285L200.98 70.7016L200.245 70.023ZM192.44 60.88L191.993 59.9856L190.85 60.5572L191.68 61.5293L192.44 60.88ZM198.238 59.319L198.403 60.3054L198.424 60.3019L198.444 60.2975L198.238 59.319ZM225.221 62.218L224.83 63.1383L225.221 62.218ZM241.054 72.699L241.75 71.9804L241.054 72.699ZM251.758 88.309L250.838 88.7001L250.842 88.7098L250.847 88.7194L251.758 88.309ZM247.967 135.139L247.124 134.602L247.121 134.606L247.967 135.139ZM227.228 154.317L227.7 155.199L227.705 155.196L227.228 154.317ZM198.015 160.23C186.121 160.23 175.743 157.662 166.847 152.558L165.852 154.292C175.094 159.595 185.826 162.23 198.015 162.23V160.23ZM166.853 152.561C158.128 147.471 149.984 138.701 142.454 126.15L140.739 127.179C148.373 139.903 156.731 148.972 165.846 154.289L166.853 152.561ZM142.133 127.509L166.663 111.899L165.59 110.211L141.06 125.821L142.133 127.509ZM165.291 111.604C168.739 116.852 172.205 121.152 175.693 124.489L177.076 123.043C173.725 119.838 170.352 115.665 166.962 110.506L165.291 111.604ZM175.709 124.503C179.354 127.844 183.175 130.297 187.175 131.835L187.893 129.969C184.163 128.534 180.551 126.229 177.06 123.029L175.709 124.503ZM187.175 131.835C191.156 133.366 195.292 134.132 199.576 134.132V132.132C195.536 132.132 191.644 131.411 187.893 129.969L187.175 131.835ZM199.576 134.132C204.199 134.132 208.525 133.052 212.539 130.89L211.59 129.13C207.873 131.131 203.874 132.132 199.576 132.132V134.132ZM212.539 130.89C216.56 128.725 219.741 125.7 222.065 121.827L220.35 120.799C218.214 124.359 215.299 127.132 211.59 129.13L212.539 130.89ZM222.059 121.837C224.543 117.801 225.775 113.232 225.775 108.156H223.775C223.775 112.892 222.63 117.094 220.356 120.789L222.059 121.837ZM225.775 108.156C225.775 102.977 224.785 98.5595 222.747 94.9529L221.006 95.937C222.833 99.1692 223.775 103.225 223.775 108.156H225.775ZM222.747 94.9529C220.709 91.3464 217.727 88.6063 213.835 86.7385L212.97 88.5415C216.512 90.2417 219.179 92.7049 221.006 95.937L222.747 94.9529ZM213.835 86.7385C209.956 84.8767 205.417 83.964 200.245 83.964V85.964C205.184 85.964 209.415 86.8353 212.97 88.5415L213.835 86.7385ZM200.245 83.964C197.95 83.964 195.441 84.1934 192.722 84.6466L193.051 86.6194C195.684 86.1806 198.081 85.964 200.245 85.964V83.964ZM192.722 84.6466C189.978 85.104 187.167 85.8647 184.29 86.9247L184.981 88.8013C187.753 87.78 190.443 87.054 193.051 86.6194L192.722 84.6466ZM184.334 86.9094C181.479 87.8111 178.405 88.936 175.114 90.2824L175.871 92.1335C179.121 90.804 182.143 89.6989 184.937 88.8166L184.334 86.9094ZM176.427 90.8524L168.622 70.3364L166.753 71.0476L174.558 91.5636L176.427 90.8524ZM168.425 71.3674L209.68 26.3214L208.205 24.9706L166.95 70.0166L168.425 71.3674ZM208.363 26.4612L216.837 32.4822L217.996 30.8518L209.522 24.8308L208.363 26.4612ZM217.43 30.6671L151.868 29.7751L151.841 31.7749L217.403 32.6669L217.43 30.6671ZM152.854 30.775V2.00799H150.854V30.775H152.854ZM151.854 3.00799H245.737V1.00799H151.854V3.00799ZM244.84 2.44866L250.861 14.7137L252.656 13.8323L246.635 1.56731L244.84 2.44866ZM251.024 13.5943L199.511 69.3444L200.98 70.7016L252.493 14.9516L251.024 13.5943ZM201.006 69.3737L193.201 60.2307L191.68 61.5293L199.485 70.6723L201.006 69.3737ZM192.888 61.7744C193.936 61.25 195.745 60.7483 198.403 60.3054L198.074 58.3326C195.38 58.7816 193.323 59.3206 191.993 59.9856L192.888 61.7744ZM198.444 60.2975C201.215 59.7142 203.747 59.427 206.043 59.427V57.427C203.583 57.427 200.911 57.7344 198.032 58.3404L198.444 60.2975ZM206.043 59.427C212.756 59.427 219.014 60.6666 224.83 63.1383L225.613 61.2977C219.535 58.7147 213.009 57.427 206.043 57.427V59.427ZM224.83 63.1383C230.665 65.618 235.839 69.0436 240.359 73.4176L241.75 71.9804C237.052 67.4344 231.671 63.8726 225.613 61.2977L224.83 63.1383ZM240.359 73.4176C244.871 77.7839 248.363 82.8756 250.838 88.7001L252.679 87.9179C250.1 81.849 246.455 76.5341 241.75 71.9804L240.359 73.4176ZM250.847 88.7194C253.462 94.5307 254.772 100.783 254.772 107.487H256.772C256.772 100.514 255.407 93.9806 252.67 87.8986L250.847 88.7194ZM254.772 107.487C254.772 117.566 252.219 126.595 247.124 134.602L248.811 135.676C254.123 127.329 256.772 117.924 256.772 107.487H254.772ZM247.121 134.606C242.163 142.481 235.38 148.758 226.752 153.438L227.705 155.196C236.619 150.361 243.663 143.853 248.814 135.672L247.121 134.606ZM226.757 153.435C218.295 157.958 208.722 160.23 198.015 160.23V162.23C209.014 162.23 218.917 159.893 227.7 155.199L226.757 153.435Z" fill="url(#paint1_linear_32_129)"/>
<defs>
<linearGradient id="paint0_linear_32_129" x1="129.5" y1="-23" x2="129.5" y2="174" gradientUnits="userSpaceOnUse">
<stop stop-color="#5BE9B9"/>
<stop offset="1" stop-color="#164B39" stop-opacity="0.16"/>
</linearGradient>
<linearGradient id="paint1_linear_32_129" x1="129.5" y1="-23" x2="129.5" y2="174" gradientUnits="userSpaceOnUse">
<stop stop-color="#5BE9B9"/>
<stop offset="1" stop-color="#0A1713" stop-opacity="0"/>
</linearGradient>
</defs>
</svg>
