<svg width="27" height="31" viewBox="0 0 27 31" fill="none" xmlns="http://www.w3.org/2000/svg">
<g clip-path="url(#clip0_18_72)">
<path d="M22.6653 4.16895C20.3619 4.16895 18.4867 6.03574 18.4867 8.33027V9.86367C18.2662 9.82324 18.0399 9.79395 17.8077 9.79395C17.0532 9.79395 16.3278 10.0107 15.701 10.4092C15.0742 10.0107 14.3488 9.79395 13.6001 9.79395C13.3622 9.79395 13.1358 9.82324 12.9153 9.86426V4.6377C12.9153 2.31152 11.0407 0.418945 8.78896 0.418945C6.43387 0.418945 4.55932 2.31152 4.55932 4.6377V14.0361L4.14651 14.1057C2.23325 14.5225 0.843872 16.2568 0.843872 18.1787V22.8662C0.843872 24.1775 1.43119 25.391 2.45785 26.1967L5.12575 28.2914C6.82851 29.6291 8.95436 30.3662 11.115 30.3662L16.618 30.4189C22.2532 30.4189 26.8439 25.7842 26.8439 20.0947V8.3291C26.8439 6.03574 24.9693 4.16895 22.6653 4.16895ZM16.6296 13.7959C16.6296 13.1396 17.1577 12.6064 17.8077 12.6064C18.4577 12.6064 18.9829 13.1384 18.9829 13.793V17.0449C18.98 17.6982 18.4519 18.2314 17.8077 18.2314C17.1635 18.2314 16.6296 17.6982 16.6296 17.0479V13.7959ZM14.7724 13.7959V17.0479C14.7724 17.0737 14.7594 17.0953 14.7578 17.1209C14.6854 15.3838 13.664 14.1533 12.4742 13.5381C12.5903 13.0107 13.0372 12.6064 13.6001 12.6064C14.2443 12.6064 14.7724 13.1396 14.7724 13.7959ZM7.34387 4.6377C7.34387 3.8625 7.9695 3.23145 8.6845 3.23145C9.45173 3.23145 10.0774 3.8625 10.0774 4.6377V11.8975C9.92066 12.29 9.76976 12.7119 9.70012 13.1689L7.34387 13.5674V4.6377ZM24.0582 20.0947C24.0582 24.2373 20.7211 27.6064 16.618 27.6064L11.1156 27.6055C9.57418 27.6055 8.05597 27.0791 6.83896 26.1231L4.17106 24.0284C3.83097 23.7627 3.62959 23.3467 3.62959 22.8662V18.1787C3.62959 17.5207 4.09207 16.9418 4.66726 16.8152L10.2967 15.8666C10.3949 15.8453 10.4931 15.8351 10.5898 15.8351C11.2781 15.8351 11.9879 16.3882 11.9879 17.2449C11.9879 17.8918 11.5519 18.4724 10.9914 18.5978L7.62244 19.1104C6.92427 19.206 6.41646 19.8088 6.41646 20.502C6.41646 21.6879 7.50869 21.9129 7.79133 21.9129C7.85871 21.9129 7.92707 21.9078 7.99596 21.8974L11.4711 21.4186C11.916 21.3221 12.3173 21.1408 12.6905 20.9207C12.9791 20.9912 13.2809 21.0439 13.6001 21.0439C14.3488 21.0439 15.0742 20.8271 15.701 20.4287C16.3278 20.8271 17.0532 21.0439 17.8077 21.0439C19.9916 21.0439 21.7686 19.2504 21.7686 17.0449V13.793C21.7686 13.1045 21.5798 12.4664 21.2753 11.9004V8.3291C21.2724 7.58496 21.8992 6.98145 22.6653 6.98145C23.4314 6.98145 24.0582 7.58672 24.0582 8.33027V20.0947Z" fill="white"/>
</g>
<defs>
<clipPath id="clip0_18_72">
<rect width="26" height="30" fill="white" transform="translate(0.843872 0.418945)"/>
</clipPath>
</defs>
</svg>
