<svg width="40" height="37" viewBox="0 0 40 37" fill="none" xmlns="http://www.w3.org/2000/svg">
<g clip-path="url(#clip0_24_274)">
<path d="M19.9317 36.4831C15.9919 36.4816 12.141 35.4292 8.86612 33.4589C5.59121 31.4886 3.03932 28.6889 1.53315 25.4139C0.0269815 22.1389 -0.365821 18.5356 0.404417 15.0597C1.17466 11.5839 3.07334 8.39157 5.86037 5.88647C8.6474 3.38136 12.1976 1.67599 16.062 0.985999C19.9264 0.296009 23.9315 0.652396 27.5708 2.01009C31.2101 3.36779 34.3201 5.66581 36.5075 8.61357C38.695 11.5613 39.8617 15.0264 39.86 18.5707C39.8547 23.3225 37.7529 27.8781 34.0163 31.2367C30.2796 34.5954 25.2138 36.4823 19.9317 36.4831ZM24.9113 32.9115C27.9292 32.0649 30.6186 30.466 32.6674 28.3002C34.7162 26.1344 36.0405 23.4905 36.4867 20.6751C36.9329 17.8597 36.4828 14.9881 35.1884 12.3935C33.8941 9.79896 31.8086 7.58764 29.1739 6.01606C26.5391 4.44448 23.4631 3.57704 20.3026 3.51436C17.1421 3.45168 14.0266 4.19632 11.3174 5.66191C8.60826 7.12751 6.41648 9.254 4.99628 11.7947C3.57608 14.3355 2.98567 17.1864 3.29352 20.0168C3.63625 23.5361 5.38164 26.8253 8.20793 29.2782C10.1395 31.0235 12.5336 32.2972 15.1643 32.9791C15.1643 32.8107 15.1643 32.6935 15.1643 32.5762C15.1643 31.6653 15.1476 30.7543 15.1894 29.8449C15.1928 29.3977 15.2952 28.9557 15.4906 28.5446C15.686 28.1334 15.9704 27.7614 16.3273 27.4502C16.4376 27.3555 16.5562 27.2668 16.7083 27.1496C16.5696 27.127 16.4961 27.112 16.4226 27.1045C15.0444 26.9906 13.6946 26.6832 12.4222 26.1935C11.5446 25.8663 10.75 25.3823 10.0865 24.7706C9.42297 24.159 8.9044 23.4326 8.56218 22.6354C8.09191 21.485 7.84162 20.2713 7.82193 19.0457C7.74707 18.1686 7.86641 17.2869 8.17303 16.4517C8.47966 15.6164 8.96748 14.8442 9.60823 14.1797C9.66896 14.126 9.70974 14.0568 9.725 13.9814C9.74026 13.9061 9.72924 13.8283 9.69345 13.7588C9.21081 12.393 9.28788 10.9169 9.91068 9.59787C9.9403 9.54637 9.98322 9.50201 10.0359 9.46852C10.0885 9.43504 10.1493 9.41341 10.2131 9.40546C10.6057 9.40172 10.9977 9.43447 11.3828 9.50317C12.6726 9.82689 13.8896 10.3509 14.9788 11.0515C15.0619 11.1038 15.1571 11.1385 15.2573 11.1528C15.3575 11.1671 15.46 11.1608 15.557 11.1342C18.4889 10.4497 21.5666 10.4497 24.4985 11.1342C24.6061 11.1624 24.7196 11.1676 24.8299 11.1493C24.9401 11.1311 25.0441 11.0898 25.1335 11.0289C26.2181 10.3369 27.4297 9.82193 28.7128 9.50768C29.0941 9.44032 29.4822 9.40908 29.8708 9.41448C29.9252 9.42099 29.9771 9.43913 30.0222 9.46737C30.0673 9.49561 30.1041 9.53314 30.1298 9.57683C30.7492 10.8755 30.8403 12.329 30.3871 13.6821C30.3405 13.7776 30.327 13.8835 30.3485 13.986C30.3699 14.0885 30.4254 14.1827 30.5074 14.2564C31.5967 15.3832 32.205 16.8219 32.2235 18.3151C32.2741 19.5793 32.1016 20.8426 31.7122 22.0581C31.2873 23.3964 30.3856 24.5721 29.1456 25.4043C27.8276 26.2284 26.3133 26.7633 24.7241 26.9662C24.283 27.0413 23.8368 27.0864 23.4191 27.1421C23.7553 27.4755 24.0689 27.8269 24.3582 28.1943C24.7652 28.8476 24.9565 29.5918 24.9096 30.3394C24.9179 31.1858 24.9179 32.0351 24.9179 32.9115H24.9113Z" fill="white"/>
</g>
<defs>
<clipPath id="clip0_24_274">
<rect width="39.84" height="35.84" fill="white" transform="translate(0.0200195 0.643127)"/>
</clipPath>
</defs>
</svg>
