<svg width="36" height="36" viewBox="0 0 36 36" fill="none" xmlns="http://www.w3.org/2000/svg">
<g clip-path="url(#clip0_24_270)">
<path d="M9.00006 35.0624C7.66465 34.756 6.35736 34.3378 5.09199 33.8124C3.62649 33.1355 2.38208 32.0582 1.50219 30.7048C0.622287 29.3513 0.142711 27.7768 0.118725 26.1626C-0.0492429 20.3059 -0.0212482 14.438 0.127124 8.58132C0.492455 4.17339 3.961 0.657135 8.36178 0.2316C9.3136 0.158812 10.2682 0.10282 11.2228 0.0916219L24.9403 0.0678256C26.7473 -0.00449947 28.5381 0.433473 30.1078 1.33161C31.6775 2.22974 32.9626 3.55173 33.816 5.14624C34.62 6.6316 35.0228 8.30092 34.9848 9.9895L34.905 25.9946C34.7846 30.6517 31.1957 34.4801 26.5556 34.8973C26.365 34.9363 26.1778 34.9901 25.9957 35.0582L9.00006 35.0624ZM17.6602 3.37832V3.28733C15.2247 3.28733 12.7849 3.25653 10.348 3.28733C5.86884 3.35732 3.31572 5.74255 3.24854 10.1183C3.17015 15.2583 3.20654 20.3997 3.28353 25.5439C3.23795 26.9789 3.7165 28.3813 4.62972 29.4891C5.54295 30.5968 6.82834 31.3341 8.2456 31.563C9.01577 31.7361 9.80219 31.8267 10.5916 31.8331L24.5245 31.8415C29.2276 31.7967 31.8214 29.2827 31.9011 24.5627C31.9851 19.6872 31.9683 14.8118 31.9151 9.93491C31.9565 9.11411 31.8347 8.29325 31.5567 7.51985C31.2787 6.74646 30.8501 6.03587 30.2957 5.42923C29.7413 4.82258 29.072 4.33193 28.3267 3.98565C27.5814 3.63938 26.7748 3.44437 25.9537 3.41191C23.206 3.19634 20.4247 3.36712 17.663 3.36712L17.6602 3.37832ZM17.5245 8.50573C18.7107 8.50861 19.8847 8.74522 20.9794 9.20205C22.0741 9.65887 23.068 10.327 23.9044 11.1681C24.7409 12.0094 25.403 13.0076 25.8529 14.1053C26.3028 15.203 26.5316 16.3788 26.5262 17.5651C26.4772 22.5162 22.4571 26.5238 17.5063 26.5238C15.1071 26.5321 12.8031 25.5859 11.1053 23.8922C9.40738 22.1984 8.45136 19.8986 8.45416 17.4993C8.45523 16.312 8.69119 15.1367 9.14845 14.041C9.60571 12.9453 10.2752 11.9508 11.1185 11.115C11.9617 10.2792 12.9619 9.61844 14.0616 9.17087C15.1613 8.72329 16.3386 8.49771 17.5259 8.50713L17.5245 8.50573ZM17.5245 11.7252C16.7587 11.7179 15.9993 11.8638 15.2909 12.1545C14.5824 12.4451 13.9393 12.8746 13.3994 13.4177C12.8595 13.9607 12.4338 14.6063 12.1472 15.3164C11.8607 16.0266 11.7191 16.7869 11.7309 17.5525C11.7351 18.3103 11.8885 19.0599 12.1825 19.7583C12.4765 20.4568 12.9052 21.0904 13.4442 21.6231C13.9835 22.1556 14.6228 22.5762 15.3251 22.8609C16.0275 23.1455 16.7792 23.2886 17.5371 23.2818C19.0492 23.2746 20.4979 22.6738 21.5713 21.6087C22.6447 20.5436 23.2569 19.0996 23.276 17.5875C23.2894 16.8215 23.15 16.0605 22.866 15.3489C22.582 14.6374 22.1591 13.9895 21.6219 13.4433C21.0848 12.897 20.4442 12.4632 19.7376 12.1673C19.0309 11.8713 18.2724 11.7191 17.5063 11.7196L17.5245 11.7252ZM28.9505 8.27056C28.9225 9.37219 28.0351 10.2583 26.9349 10.2933C26.3879 10.2882 25.8645 10.07 25.476 9.68487C25.0876 9.29978 24.8647 8.77829 24.8549 8.23137C24.868 7.70027 25.0846 7.19449 25.46 6.81857C25.8354 6.44265 26.3408 6.22532 26.8719 6.21148C28.0127 6.21008 28.9435 7.12974 28.9519 8.26916L28.9505 8.27056Z" fill="white"/>
</g>
<defs>
<clipPath id="clip0_24_270">
<rect width="35.02" height="35.01" fill="white" transform="translate(0 0.058136)"/>
</clipPath>
</defs>
</svg>
