<svg width="66" height="57" viewBox="0 0 66 57" fill="none" xmlns="http://www.w3.org/2000/svg">
<g clip-path="url(#clip0_12_54)">
<path d="M15.8977 17.0927L32.1477 27.5927C32.5394 27.9208 32.9602 28.4021 32.9602 28.9161C32.9602 29.4302 32.5394 29.9115 32.1477 30.2396L15.8977 40.7396C14.9256 41.374 13.4602 41.2864 12.6259 40.5536C11.7917 39.8208 11.9048 38.7161 12.8784 38.0927L27.0696 28.9161L12.8784 19.7396C11.9048 19.1161 11.7917 18.0115 12.6259 17.2786C13.4602 16.5458 14.9256 16.4583 15.8977 17.0927ZM53.8531 39.4161C55.1298 39.4161 56.1745 40.2036 56.1745 41.1661C56.1745 42.1286 55.1298 42.9161 53.8531 42.9161H30.6388C29.362 42.9161 28.3173 42.1286 28.3173 41.1661C28.3173 40.2036 29.362 39.4161 30.6388 39.4161H53.8531ZM56.1745 4.41614C61.2961 4.41614 65.4602 7.54973 65.4602 11.4161V46.4161C65.4602 50.2771 61.2961 53.4161 56.1745 53.4161H9.74592C4.61701 53.4161 0.460205 50.2771 0.460205 46.4161V11.4161C0.460205 7.54973 4.61701 4.41614 9.74592 4.41614H56.1745ZM56.1745 7.91614H9.74592C7.18219 7.91614 5.10306 9.48348 5.10306 11.4161V46.4161C5.10306 48.3521 7.18219 49.9161 9.74592 49.9161H56.1745C58.7426 49.9161 60.8173 48.3521 60.8173 46.4161V11.4161C60.8173 9.48348 58.7426 7.91614 56.1745 7.91614Z" fill="#141C3A"/>
</g>
<defs>
<clipPath id="clip0_12_54">
<rect width="65" height="56" fill="white" transform="translate(0.460205 0.916138)"/>
</clipPath>
</defs>
</svg>
