<svg width="43" height="33" viewBox="0 0 43 33" fill="none" xmlns="http://www.w3.org/2000/svg">
<path d="M8.50368 23.837L6.05508 21.385C3.76204 19.2181 2.0679 16.6157 1.10423 13.7799C0.140551 10.944 -0.06673 7.95102 0.49848 5.0333C0.562977 4.44696 0.838427 3.89397 1.28481 3.45467C1.73119 3.01538 2.32525 2.71267 2.98068 2.59052C4.21968 2.28217 5.54268 2.69761 6.27348 3.6245C8.73438 6.36568 12.2333 8.2384 16.133 8.9015C16.532 8.97167 16.9394 9.00675 17.4434 9.07137L17.8172 7.35422C18.6572 4.15996 21.3326 1.59346 24.89 0.624105C28.4474 -0.345254 32.324 0.428387 35.054 2.65514C35.7302 3.35677 36.8432 3.5968 37.8092 3.2423C38.9264 2.86932 40.1906 3.09089 41.06 3.81468C41.9294 4.53847 42.2528 5.63153 41.8937 6.63413C41.2847 8.09278 40.5875 9.52374 39.7937 10.9141C39.3483 11.6701 39.0287 12.4785 38.8445 13.3144C37.4711 24.0143 27.5213 32.2824 15.2951 32.8862C10.9019 33.1632 6.47508 32.4948 2.46408 30.929C0.70008 30.2089 -0.12522 29.1823 0.0490801 27.864C0.23178 26.4977 1.26708 25.7333 3.13608 25.3086C5.00508 24.8839 6.78168 24.3171 8.50368 23.837ZM15.6143 22.5131C13.9763 25.2089 11.2715 27.2768 8.01228 28.3293L8.78508 28.4992C11.4606 29.0556 14.2354 29.1375 16.9473 28.74C19.6593 28.3426 22.2539 27.4738 24.5795 26.1844C26.905 24.8951 28.915 23.211 30.4917 21.2308C32.0684 19.2505 33.1804 17.0137 33.7625 14.6512C34.3337 12.2509 34.3085 9.73054 36.3623 7.78259C36.4106 7.73827 36.4043 7.64595 36.4463 7.48347C34.5878 7.30622 32.8637 6.55104 31.5806 5.35642C30.6402 4.68532 29.4851 4.28903 28.2763 4.22283C27.0674 4.15663 25.8653 4.42382 24.8375 4.98714C23.8216 5.51989 23.0129 6.31052 22.5177 7.25504C22.0226 8.19956 21.8642 9.25374 22.0634 10.2789C22.2356 11.1338 22.454 11.9813 22.6598 12.8639C19.4993 13.3624 16.2548 13.2387 13.1531 12.5094C9.97368 11.684 7.07568 10.1921 4.70268 8.14263C4.63338 14.4444 8.95938 20.1405 15.608 22.4965L15.6143 22.5131Z" fill="white"/>
</svg>
